<?xml version="1.0" encoding="utf-8"?><svg viewBox="0 0 2000 2000" xmlns="http://www.w3.org/2000/svg" xmlns:xlink="http://www.w3.org/1999/xlink"><style>:root>svg{display:none}:root>svg:target{display:block}</style><svg fill="none" viewBox="0 0 78 76" id="Group" xmlns="http://www.w3.org/2000/svg"><path d="M77.115 74.068H35.377a.878.878 0 01-.886-.886c0-.497.39-.887.886-.887h40.85V55.577c0-7.25-5.883-13.137-13.132-13.137H59.23l-6.54 6.684a.842.842 0 01-.638.265.87.87 0 01-.638-.266l-6.54-6.683H41.01c-4.13 0-8.064 1.986-10.545 5.336a.88.88 0 01-1.24.178.88.88 0 01-.178-1.241c2.818-3.794 7.284-6.046 11.963-6.046h4.236c.23 0 .46.088.638.266l6.168 6.311 6.168-6.311a.842.842 0 01.638-.266h4.236C71.318 40.667 78 47.35 78 55.577v17.604c0 .497-.39.887-.886.887z" fill="#02B573"/><path d="M45.249 42.44a.878.878 0 01-.886-.886v-6.135c0-.496.39-.886.886-.886s.886.39.886.886v6.135c0 .496-.39.886-.886.886zM58.86 42.44a.878.878 0 01-.886-.886V35.72c0-.496.39-.886.886-.886s.886.39.886.886v5.833c0 .496-.39.886-.886.886z" fill="#02B573"/><path d="M52.232 38.928c-6.044-.017-12.62-4.857-12.85-15.46-.017-.496.373-.886.869-.904h.018c.478 0 .868.39.886.869.195 9.413 5.866 13.722 11.059 13.722h.018c5.175 0 10.846-4.273 11.076-13.65a.897.897 0 01.887-.87h.017a.9.9 0 01.869.905c-.248 10.584-6.823 15.389-12.85 15.389z" fill="#02B573"/><path d="M64.195 24.446c-.071 0-.142 0-.213-.018a.869.869 0 01-.674-.833c-.194-6.453-1.79-8.953-2.516-9.769-5.867 3.404-10.617 1.596-13.806.39-2.27-.85-3.084-1.063-3.598-.514 0 5.283-2.233 9.946-2.34 10.141a.904.904 0 01-.726.497.878.878 0 01-.798-.355c-3.527-4.858-3.793-10.265-.726-15.21C42.413 2.941 49.98-.836 56.043.157c4.236.71 7.177 3.617 8.33 8.19 2.623 2.057 3.544 5.408 2.676 9.698-.638 3.209-2.038 5.815-2.11 5.939-.124.284-.425.461-.744.461zM54.004 1.77c-5.034 0-10.758 3.227-13.664 7.943-2.375 3.829-2.446 7.978-.23 11.86.655-1.773 1.577-4.875 1.524-8.137 0-.178.053-.355.142-.497 1.346-2.074 3.527-1.24 5.848-.372 3.137 1.188 7.426 2.801 12.796-.585a.87.87 0 01.904-.018c.302.178 2.605 1.65 3.456 7.854 1.01-3.156 1.701-7.765-1.701-10.212a.936.936 0 01-.355-.514c-1.187-5.16-4.448-6.737-6.982-7.162-.55-.125-1.135-.16-1.738-.16zM67.049 74.068a.878.878 0 01-.886-.886V55.435c0-.496.39-.886.886-.886s.886.39.886.886v17.747c0 .496-.39.886-.886.886zM47.535 53.822h-.089a.804.804 0 01-.638-.39l-7.745-11.33a.864.864 0 01.23-1.222.863.863 0 011.223.23l7.16 10.46 3.776-3.688a.893.893 0 011.258.018.894.894 0 01-.018 1.26l-4.537 4.431a.991.991 0 01-.62.23z" fill="#02B573"/><path d="M56.591 53.821a.885.885 0 01-.62-.248l-4.537-4.432a.894.894 0 01-.018-1.258.893.893 0 011.258-.018l3.775 3.687 7.16-10.46c.284-.408.833-.514 1.223-.23.39.284.515.833.23 1.223l-7.744 11.329a.943.943 0 01-.638.39c-.035.017-.053.017-.089.017z" fill="#02B573"/><path d="M53.313 55.257h-2.5a.903.903 0 01-.78-.46l-1.63-3.05a.898.898 0 01.355-1.205.897.897 0 011.205.354l1.382 2.57h1.453l1.383-2.57a.892.892 0 011.205-.354c.425.23.584.762.354 1.205l-1.63 3.05a.95.95 0 01-.797.46z" fill="#02B573"/><path d="M48.297 74.068h-.124c-.479-.07-.833-.514-.763-.993l2.5-18.81c.07-.479.513-.834.992-.763.478.07.833.514.762.993l-2.499 18.81c-.036.444-.426.763-.868.763zM55.812 74.068a.896.896 0 01-.886-.762l-2.499-18.811a.882.882 0 01.762-.993c.479-.07.94.284.993.763l2.499 18.81a.882.882 0 01-.763.993h-.106zM30.627 76H7.747C3.475 76 0 72.525 0 68.252V54.105c0-4.273 3.474-7.748 7.746-7.748h22.88c4.272 0 7.745 3.476 7.745 7.748v14.148c0 4.272-3.473 7.747-7.745 7.747zM7.747 48.132a5.976 5.976 0 00-5.973 5.974v14.148a5.976 5.976 0 005.973 5.974h22.88a5.976 5.976 0 005.973-5.975V54.106a5.976 5.976 0 00-5.973-5.975H7.747z" fill="#02B573"/><path d="M9.077 76a.878.878 0 01-.887-.886v-8.865H.888a.878.878 0 01-.886-.886c0-.497.39-.887.886-.887h8.188c.496 0 .886.39.886.887v9.75a.888.888 0 01-.885.887zM29.298 76a.878.878 0 01-.886-.887v-9.75c0-.497.39-.887.886-.887h8.188c.496 0 .886.39.886.887 0 .496-.39.886-.886.886h-7.302v8.865c0 .496-.39.886-.886.886zM37.486 59.742H22.652a.878.878 0 01-.886-.886c0-.497.39-.887.886-.887h14.834c.496 0 .886.39.886.887a.889.889 0 01-.886.886zm-21.747 0H.886A.878.878 0 010 58.856c0-.497.39-.887.886-.887H15.74c.496 0 .886.39.886.887a.889.889 0 01-.886.886zM27.154 48.13a.878.878 0 01-.887-.887V43.61a2.761 2.761 0 00-2.747-2.748h-8.666a2.761 2.761 0 00-2.748 2.748v3.634c0 .497-.39.887-.886.887a.878.878 0 01-.886-.887V43.61c0-2.5 2.02-4.52 4.52-4.52h8.648a4.517 4.517 0 014.52 4.52v3.634a.863.863 0 01-.868.887z" fill="#02B573"/><path d="M19.178 63.2a4.35 4.35 0 01-4.342-4.344 4.35 4.35 0 014.342-4.343 4.35 4.35 0 014.342 4.343 4.339 4.339 0 01-4.342 4.344zm0-6.915a2.572 2.572 0 00-2.57 2.57 2.572 2.572 0 002.57 2.571 2.572 2.572 0 002.57-2.57 2.572 2.572 0 00-2.57-2.57z" fill="#02B573"/></svg><svg fill="none" viewBox="0 0 78 79" id="edge-1" xmlns="http://www.w3.org/2000/svg"><path d="M43.7 51.948H11.892a.975.975 0 100 1.95H43.7a.975.975 0 100-1.95zM43.7 57.95H11.892a.975.975 0 100 1.95H43.7a.975.975 0 100-1.95zM43.7 63.947H11.892a.975.975 0 100 1.95H43.7a.975.975 0 100-1.95z" fill="#02B573"/><path d="M9.916 78.225h58.167c5.467 0 9.917-4.42 9.917-9.855V30.251a.975.975 0 00-.975-.975h-21.52V1.208a.975.975 0 00-.975-.975H.975A.975.975 0 000 1.208V68.37c0 5.434 4.45 9.855 9.918 9.855h-.002zm45.589-10.7V31.227h20.546v37.144c0 4.359-3.574 7.905-7.967 7.905h-3.497a.98.98 0 00-.27-.038c-4.813 0-8.737-3.845-8.818-8.6a.907.907 0 00.007-.113h-.001zM1.948 2.182h51.607v65.18a1.03 1.03 0 00-.007.123c0 3.635 1.834 6.854 4.631 8.788H9.916c-4.393 0-7.968-3.546-7.968-7.905V2.182z" fill="#02B573"/><path d="M27.95 15.367h-.078c-6.46.042-11.681 5.347-11.638 11.823a11.68 11.68 0 003.486 8.282 11.624 11.624 0 008.229 3.386h.079c6.461-.042 11.682-5.347 11.639-11.823-.044-6.45-5.291-11.668-11.717-11.668zm7.863 5.637l-2.783.018a15.702 15.702 0 00-2.184-3.467 10.003 10.003 0 014.967 3.449zm1.269 10.084l-3.328.022c.31-.969.523-2.023.593-3.162l3.526-.024a9.89 9.89 0 01-.791 3.164zM18.945 22.87l3.197-.022a14.555 14.555 0 00-.591 3.429l-3.523.023a9.87 9.87 0 01.917-3.43zm9.761-1.819l-.021-3.262c.57.567 1.544 1.67 2.386 3.246l-2.365.016zm3.146 1.733c.369 1.013.639 2.156.733 3.42l-3.845.025-.022-3.425 3.134-.02zm-4.902-1.721l-2.195.014a14.18 14.18 0 012.175-3.105l.02 3.09zm.013 1.753l.022 3.425-3.686.024a12.76 12.76 0 01.698-3.429l2.966-.02zm-8.926 5.24l3.53-.023a12.87 12.87 0 00.639 3.154l-3.339.022a9.91 9.91 0 01-.83-3.153zm5.302-.036l3.658-.024.021 3.157-2.947.02a11.242 11.242 0 01-.732-3.153zm3.69 4.888l.018 2.788a14.917 14.917 0 01-2.106-2.774l2.088-.014zm1.755-.011l2.273-.016a14.81 14.81 0 01-2.253 2.981l-.02-2.965zm-.011-1.754l-.02-3.158 3.837-.025a11.21 11.21 0 01-.703 3.163l-3.114.02zm9.088-4.974l-3.519.023a14.563 14.563 0 00-.638-3.421l3.194-.022a9.945 9.945 0 01.963 3.42zM24.93 17.592a15.62 15.62 0 00-2.138 3.499l-2.785.018a9.98 9.98 0 014.923-3.517zm-5.05 15.366l3.046-.02a15.856 15.856 0 002.783 3.91 9.892 9.892 0 01-4.754-2.622c-.4-.395-.753-.823-1.075-1.268zM30.348 36.8a15.885 15.885 0 002.711-3.93l3.033-.02a9.982 9.982 0 01-5.744 3.95z" fill="#02B573"/><path d="M8.551 34.177a.973.973 0 001.334-.348l.546-.932a18.32 18.32 0 0017.434 12.588 18.323 18.323 0 0017.834-13.962.975.975 0 10-1.893-.467 16.378 16.378 0 01-15.941 12.48c-7.17 0-13.421-4.601-15.605-11.324l1.176.69a.974.974 0 10.987-1.683l-3.08-1.806a.971.971 0 00-1.334.349l-1.805 3.08a.974.974 0 00.346 1.335h.001zM10.74 23.904a.975.975 0 001.18-.715 16.375 16.375 0 0115.944-12.496 16.367 16.367 0 0115.474 10.942l-1.127-.542a.974.974 0 10-.845 1.755l3.216 1.548a.974.974 0 001.301-.455l1.549-3.216a.973.973 0 00-.457-1.3.977.977 0 00-1.301.454l-.513 1.066A18.313 18.313 0 0027.864 8.743a18.322 18.322 0 00-17.839 13.981.976.976 0 00.715 1.18z" fill="#02B573"/></svg><svg fill="none" viewBox="0 0 71 70" id="edge-2" xmlns="http://www.w3.org/2000/svg"><path d="M69.992 25.68c-.764-3.11-4.315-4.802-5.868-7.284-2.379-5.771-.766-9.552-8.69-11.008a12.438 12.438 0 01-3.409-1.091c-2.485-1.55-4.17-5.103-7.283-5.867-3.047-.863-6.31 1.38-9.242 1.445a12.733 12.733 0 01-3.585-.774c-7.511-2.675-8.046 1.379-12.942 5.197-2.575 1.395-6.508 1.088-8.718 3.38-2.292 2.21-1.99 6.143-3.38 8.72-3.79 4.873-7.883 5.42-5.197 12.94.43 1.15.691 2.358.775 3.584-.062 2.934-2.309 6.195-1.446 9.242.764 3.111 4.315 4.803 5.868 7.285a12.46 12.46 0 011.092 3.41c1.46 7.91 5.198 6.306 11.008 8.689 2.485 1.55 4.17 5.102 7.283 5.867 3.066.862 6.3-1.382 9.242-1.445 6.255.813 8.67 4.149 13.934-2.053a12.284 12.284 0 012.592-2.37c2.575-1.396 6.509-1.09 8.719-3.381 2.29-2.21 1.987-6.143 3.38-8.719a12.257 12.257 0 012.37-2.592c6.186-5.26 2.88-7.645 2.052-13.933.062-2.933 2.309-6.194 1.445-9.241zM67.03 39.222c1.364 3.806.908 5.261-2.157 7.866v-.001a11.129 11.129 0 00-4.182 7.247c-.73 3.963-1.803 5.054-5.783 5.78a11.127 11.127 0 00-7.244 4.183c-2.6 3.048-4.046 3.532-7.866 2.156a11.545 11.545 0 00-8.598 0c-1.598.498-3.105.97-4.322.644-2.539-.777-4.257-4.31-6.703-5.627-2.358-1.467-6.282-1.214-8.223-3-1.785-1.943-1.528-5.865-3-8.223-1.317-2.444-4.852-4.166-5.627-6.703-.326-1.217.146-2.725.643-4.322v.001a11.544 11.544 0 00.001-8.6c-1.365-3.806-.908-5.259 2.157-7.864a11.12 11.12 0 004.182-7.245c.37-1.654.722-3.216 1.644-4.138 1.943-1.785 5.865-1.528 8.223-3 2.744-1.423 4.393-5.645 7.586-5.735 2.433.074 5.166 1.678 7.738 1.635 5.36-.19 7.886-4.214 12.164 1.273a11.124 11.124 0 007.246 4.182c1.654.371 3.216.723 4.137 1.644 1.785 1.943 1.529 5.865 3.001 8.223 1.318 2.444 4.852 4.166 5.627 6.704.325 1.216-.146 2.724-.644 4.322a11.545 11.545 0 000 8.598z" fill="#02B573"/><path d="M35.5 12.415a22.533 22.533 0 00-22.507 22.507c1.236 29.858 43.781 29.85 45.013 0a22.533 22.533 0 00-22.507-22.507zm0 42.613A20.13 20.13 0 0115.392 34.92c1.105-26.675 39.113-26.666 40.213 0A20.13 20.13 0 0135.5 55.028z" fill="#02B573"/><path d="M47.954 29.745l-7.863-1.143-3.516-7.124a1.208 1.208 0 00-2.151 0l-3.517 7.124-7.861 1.143a1.2 1.2 0 00-.665 2.047l5.689 5.544-1.343 7.83a1.2 1.2 0 001.741 1.267l7.032-3.698 7.032 3.697a1.2 1.2 0 001.74-1.265l-1.343-7.83 5.69-5.545a1.21 1.21 0 00-.665-2.047zm-7.151 6.313a1.201 1.201 0 00-.345 1.063l1.038 6.055-5.438-2.86a1.205 1.205 0 00-1.117 0l-5.438 2.86 1.039-6.055a1.201 1.201 0 00-.346-1.063l-4.4-4.288 6.08-.884a1.2 1.2 0 00.904-.656l2.719-5.51 2.72 5.51c.175.354.512.6.903.656l6.08.884-4.399 4.288z" fill="#02B573"/></svg><svg fill="none" viewBox="0 0 102 71" id="edge-3" xmlns="http://www.w3.org/2000/svg"><path d="M101.664 60.972c0-.699-.567-1.267-1.267-1.267h-5.26V6.915A6.691 6.691 0 0088.454.234H13.543A6.691 6.691 0 006.86 6.916v52.79H1.6c-.699 0-1.267.567-1.267 1.266v2.785a6.483 6.483 0 006.475 6.476h88.38a6.484 6.484 0 006.477-6.476v-2.785h-.002zM9.392 6.916c0-2.29 1.861-4.149 4.149-4.149h74.913c2.289 0 4.149 1.862 4.149 4.15v52.789h-3.8V9.056c0-.699-.567-1.267-1.266-1.267H14.46c-.699 0-1.267.567-1.267 1.267v50.648h-3.8L9.391 6.916zm76.878 52.79H15.727V10.322H86.27v49.384zm12.86 4.05a3.946 3.946 0 01-3.943 3.942H6.81a3.946 3.946 0 01-3.942-3.941v-1.52h96.265v1.52h-.002z" fill="#02B573"/><path d="M50.886 21.784c-7.335.047-13.26 6.07-13.213 13.42a13.26 13.26 0 003.957 9.4 13.197 13.197 0 009.34 3.845h.091c7.335-.048 13.26-6.07 13.211-13.42a13.254 13.254 0 00-3.957-9.401 13.236 13.236 0 00-9.43-3.845zm8.609 6.325l-2.723.017a17.793 17.793 0 00-2.092-3.412 10.953 10.953 0 014.815 3.395zm1.625 11.31l-3.42.024c.304-1 .516-2.08.6-3.235l3.643-.024a11.016 11.016 0 01-.823 3.236zm-20.15-8.907l3.282-.021a16.479 16.479 0 00-.607 3.535l-3.64.024c.12-1.255.46-2.441.965-3.538zm11.008-2.354l-.02-3.119a15.655 15.655 0 012.26 3.105l-2.24.014zm3.269 2.259c.373 1.054.653 2.231.765 3.526l-3.997.026-.023-3.531 3.255-.021zm-5.55-2.244l-2.038.015a16.049 16.049 0 012.019-2.928l.02 2.913zm.016 2.28l.023 3.532-3.789.026c.097-1.291.346-2.48.707-3.535l3.059-.022zm-9.692 5.875l3.648-.023c.1 1.154.326 2.231.646 3.227l-3.432.023a10.972 10.972 0 01-.862-3.227zm5.944-.04l3.786-.025.021 3.231-3.041.02c-.38-.977-.646-2.06-.766-3.225zm3.822 5.487l.017 2.577a16.485 16.485 0 01-1.947-2.565l1.93-.012zm2.28-.015l2.115-.014a16.414 16.414 0 01-2.097 2.796l-.018-2.782zm-.015-2.28l-.02-3.232 3.987-.026a12.392 12.392 0 01-.74 3.236l-3.227.021zm9.875-5.578l-3.635.024a16.407 16.407 0 00-.655-3.526l3.286-.021a10.96 10.96 0 011.004 3.523zm-14.804-9.13a17.693 17.693 0 00-2.036 3.433l-2.717.017a11.065 11.065 0 014.753-3.45zM42.23 41.827l3.015-.02c.82 1.62 1.819 2.938 2.718 3.929a10.868 10.868 0 01-4.728-2.75 11.186 11.186 0 01-1.005-1.159zm11.904 3.872a17.848 17.848 0 002.665-3.97l3-.02a11.03 11.03 0 01-5.665 3.99z" fill="#02B573"/><path d="M29.124 43.187a1.267 1.267 0 001.734-.454l.423-.72A20.723 20.723 0 0050.88 55.895 20.733 20.733 0 0071.055 40.1a1.268 1.268 0 00-.927-1.533 1.27 1.27 0 00-1.533.927 18.202 18.202 0 01-17.715 13.868A18.195 18.195 0 0133.69 41.216l.917.538a1.266 1.266 0 101.28-2.185l-3.458-2.023a1.266 1.266 0 00-1.732.452l-2.025 3.456a1.266 1.266 0 00.453 1.733zM31.626 31.681a1.27 1.27 0 001.53-.928 18.2 18.2 0 0117.721-13.887A18.188 18.188 0 0167.92 28.624l-.873-.42a1.265 1.265 0 10-1.098 2.28l3.608 1.736a1.265 1.265 0 001.69-.591l1.737-3.608a1.265 1.265 0 10-2.281-1.099l-.403.836a20.71 20.71 0 00-19.42-13.426 20.731 20.731 0 00-20.183 15.816c-.166.68.25 1.367.929 1.533z" fill="#02B573"/></svg><svg fill="none" viewBox="0 0 98 70" id="edge-4" xmlns="http://www.w3.org/2000/svg"><path d="M1.24 59.25h21.376v9.689A1.062 1.062 0 0023.675 70h50.689a1.065 1.065 0 001.062-1.06v-9.681h21.332a1.064 1.064 0 001.061-1.06v-5.943a18.85 18.85 0 00-13.447-18.043 12.935 12.935 0 007.43-9.976.234.234 0 010-.085c.071-.556.11-1.116.116-1.677a12.905 12.905 0 00-24.972-4.584V17.55a17.947 17.947 0 00-35.873-.382.948.948 0 000 .456v.127a12.905 12.905 0 10-17.437 16.45l-.488.138A18.822 18.822 0 00.18 52.256v5.933a1.06 1.06 0 001.063 1.061H1.24zm14.36-5.01l2.122-13.723h2.621l2.123 13.722-3.481 2.611-3.385-2.61zm.658-18.478l-.001.001c1.83-.308 3.7-.308 5.53 0l-1.2 2.632h-3.184l-1.145-2.633zm6.58 21.365h-.68l.764-.584c-.074.191-.096.393-.127.584h.043zm-.478-17.511l1.528-3.365a16.857 16.857 0 014.808 2.4c.425.391.883.746 1.37 1.06.264.234.54.446.785.701.244.255.286.318.424.467a26.546 26.546 0 00-7.09 10.613L22.36 39.616zm2.335 28.274V59.26c0-.403 0-.71.074-1.06.074-.351.074-.712.127-1.062a24.413 24.413 0 017.27-14.22l1.4 1.262 1.985 1.783 1.572 1.422.71.637-.403.583-.849 1.242-.764 1.062c-.079.119-.133.252-.159.392a1.05 1.05 0 000 .542c.033.1.08.198.138.286l.934 1.317 1.062 1.496L46.94 67.89H24.695zm15.293-20.834l-4.723-4.245-1.252-1.135-.18-.16c.127-.105.264-.2.403-.296l.286-.223.234-.17.318-.233.796-.541c.34-.213.68-.435 1.061-.637h.054c.647-.371 1.316-.7 2.006-1.061l.605-.255c.286-.117.551-.244.839-.35l.827 3.428.53 2.123 4.925 20.41-8.735-12.122 2.122-3.184c.29-.42.24-.986-.116-1.349zm9.01 17.405l-5.01-20.822-.264-1.062-.255-1.061-1.062-4.383a23.738 23.738 0 016.591-.976c2.24.004 4.469.318 6.623.934l-1.062 4.394-.265 1.061-.254 1.062-5.042 20.853zm0-30.65a15.92 15.92 0 01-15.527-12.736 17.528 17.528 0 01-.254-1.974h.138c3.982.498 8.016.376 11.96-.36.436-.096.86-.192 1.253-.298 1.03-.27 2.034-.625 3.004-1.061a15.948 15.948 0 001.963-1.062c.916-.585 1.74-1.3 2.452-2.122.424.594.986 1.326 1.666 2.122.308.35.647.7 1.062 1.062.414.36.764.711 1.189 1.061h-.001c.526.432 1.079.829 1.655 1.188a9.811 9.811 0 005 1.55 15.924 15.924 0 01-15.56 12.63zm8.905 14.635l2.122 3.184-8.67 12.184 4.913-20.336.276-1.114.265-1.061.839-3.47.424.169.531.233c.563.244 1.136.51 1.677.796l.244.127c.584.308 1.157.647 1.709.998l1.114.775.414.308.467.35-.372.191-1.284 1.157-4.575 4.118h.001c-.381.37-.43.963-.117 1.39h.022zm15.399 19.442H51.12l9.042-12.735 1.061-1.496 1.009-1.422s0-.085.063-.117v-.001a1.062 1.062 0 000-.902.71.71 0 00-.095-.202l-.828-1.21-.87-1.252-.361-.52.637-.573 1.539-1.39 1.985-1.783 1.485-1.337.382.35a24.074 24.074 0 016.867 13.797c0 .35.105.7.137 1.062.032.36 0 .711 0 1.061s.064.796.064 1.2l.064 7.47zm.53-16.429a26.284 26.284 0 00-7.099-10.54c.201-.212.424-.413.637-.626v.001a10.436 10.436 0 002.663-2.122 16.026 16.026 0 013.757-1.784l.319-.105 1.517 3.353-1.793 11.823zm1.37 5.71c0-.18 0-.36-.064-.53l.7.53h-.637zm.329-2.929l2.122-13.722h2.653l2.123 13.721-3.46 2.611-3.438-2.61zm.658-18.477a16.66 16.66 0 015.53 0l-1.2 2.632h-3.184l-1.146-2.632zm14.593 4.68a16.587 16.587 0 014.913 11.812v4.871H82.111l2.122-1.58c.329-.247.486-.66.404-1.062l-2.324-14.87 1.528-3.364a16.71 16.71 0 016.962 4.193h-.021zm-11.78-7.185a10.795 10.795 0 01-10.72-9.552c3.071.381 6.186.198 9.19-.541a10.789 10.789 0 005-2.738 14.336 14.336 0 003.268 3.258 7.543 7.543 0 003.726 1.422A10.79 10.79 0 0179 33.257zm0-21.587a10.806 10.806 0 0110.793 10.794v.488c-3.544-.149-6.304-4.893-6.368-4.935a1.061 1.061 0 00-1.89.096s-2.27 4.51-13.287 3.396A10.793 10.793 0 0179 11.64l.001.031zm-5.37 22.532l-.489.138c-.555.18-1.101.39-1.634.626.01-.205.01-.41 0-.615a1.06 1.06 0 00-.638-.976c-1.9-.84-2.981-2.962-3.587-5.434a13.022 13.022 0 006.347 6.261zm-4.246.754a3.781 3.781 0 01-.87 1.666 8.198 8.198 0 01-2.303 1.826c-.456.255-.955.499-1.486.732a25.791 25.791 0 00-4.352-2.6h-.116l-.913-.404-.446-.191-.647-.244-.764-.318-.244-.085a28.575 28.575 0 00-1.921-.552 17.973 17.973 0 009.552-8.416c.477 3.449 1.697 6.941 4.478 8.618l.032-.032zm-36.17-18.573A15.848 15.848 0 0156.444 3.991a15.848 15.848 0 018.306 12.393v2.717h-.117a6.962 6.962 0 01-2.834-.605 10.48 10.48 0 01-1.868-1.061c-.46-.331-.902-.685-1.327-1.061a22.137 22.137 0 01-3.714-4.543 1.061 1.061 0 00-.966-.53 1.06 1.06 0 00-.923.636s-1.38 2.887-6.782 4.447a34.513 34.513 0 01-13.033.647c.011-.223.011-.434.032-.647zm0 10.19a18.048 18.048 0 009.553 8.213c-.647.16-1.284.34-1.921.552a25.597 25.597 0 00-7.429 3.8 14.203 14.203 0 01-2.048-1.062 7.934 7.934 0 01-1.317-1.061 4.117 4.117 0 01-1.22-2.027c2.727-1.645 3.916-5.03 4.383-8.416zm-5.932 6.802c-.388.17-.638.553-.637.976-.014.24-.014.482 0 .722-.755-.339-1.531-.63-2.323-.87a13.002 13.002 0 006.633-6.644c-.584 2.6-1.656 4.924-3.672 5.816zM19.006 11.64A10.803 10.803 0 0129.8 22.465v.488c-3.535-.148-6.305-4.892-6.369-4.935h.001a1.06 1.06 0 00-1.9.106s-2.25 4.5-13.267 3.386a10.808 10.808 0 0110.74-9.87zM8.287 23.654c3.07.381 6.186.197 9.19-.541 1.879-.45 3.602-1.396 4.989-2.739a14.348 14.348 0 003.268 3.258 7.551 7.551 0 003.726 1.423 10.784 10.784 0 01-21.226-1.401h.053zM2.302 52.256a16.672 16.672 0 0111.536-15.92l.318-.106 1.528 3.354-2.313 14.953c-.082.402.074.815.403 1.062l2.123 1.581H2.301v-4.924z" fill="#02B573"/></svg><svg fill="none" viewBox="0 0 75 79" id="edge-5" xmlns="http://www.w3.org/2000/svg"><path d="M2.113 66.632h3.4V28.671a1.2 1.2 0 011.199-1.2h29.98c1.578 0 1.578 2.4 0 2.4H7.912v36.762h59.174V29.87H49.941c-1.579 0-1.579-2.4 0-2.4h18.345a1.2 1.2 0 011.2 1.2v37.961h3.402a1.2 1.2 0 011.2 1.2v5.577c0 2.651-2.171 4.824-4.824 4.824H5.736a4.838 4.838 0 01-4.824-4.824v-5.577a1.2 1.2 0 011.2-1.2h.001zM67.53 1.184c0-1.579 2.4-1.579 2.4 0v2.563a5.119 5.119 0 013.908 4.967c0 1.578-2.4 1.578-2.4 0a2.7 2.7 0 00-1.508-2.429v5.278c5.245 1.268 5.095 8.703 0 9.93v2.564c0 1.578-2.4 1.578-2.4 0v-2.563a5.114 5.114 0 01-3.907-4.967c0-1.578 2.4-1.578 2.4 0 0 1.037.582 1.973 1.507 2.429v-5.277c-5.097-1.23-5.242-8.668 0-9.932V1.183zm2.4 12.915v4.857c1.98-.984 2.031-3.856 0-4.857zm-2.4-2.958V6.285c-2.03 1.008-1.98 3.872 0 4.856zM53.446 18.9c-1.52-.405-.906-2.72.618-2.314l5.697 1.525a1.2 1.2 0 01.849 1.466l-1.528 5.698c-.405 1.52-2.72.906-2.315-.618l.78-2.909L17.39 44.933c-1.363.782-2.549-1.292-1.19-2.071L56.352 19.68l-2.906-.777V18.9zM15.783 56.16c-1.578 0-1.578-2.4 0-2.4h43.2c1.578 0 1.578 2.4 0 2.4h-43.2zm-.061-4.01c-1.33.83-2.593-1.194-1.265-2.024l9.614-6.023a1.195 1.195 0 011.554.254l3.908 4.765 10.303-10.41a1.198 1.198 0 011.692-.004l6.466 7.255 6.338 2.436 4.34-6.821c.843-1.324 2.857-.038 2.014 1.283l-4.863 7.644c-.299.468-.895.679-1.434.473l-7.435-2.858a1.181 1.181 0 01-.562-.355l-5.754-6.46L30.21 51.827a1.196 1.196 0 01-1.682-.164l-4.083-4.98-8.723 5.465zm30.974 16.883v1.705c0 .997-.815 1.813-1.812 1.813H30.118a1.817 1.817 0 01-1.813-1.813v-1.705H3.312v4.376a2.43 2.43 0 002.424 2.424h63.529a2.432 2.432 0 002.423-2.424v-4.376H46.695h.001zm-3.61-35.423c-1.577 0-1.577-2.4 0-2.4h21.345a1.2 1.2 0 011.2 1.2v31.682a1.2 1.2 0 01-1.2 1.2H10.337a1.2 1.2 0 01-1.2-1.2V32.41a1.2 1.2 0 011.2-1.2H30.46c1.578 0 1.578 2.4 0 2.4H11.537v29.284H63.23V33.61H43.087z" fill="#02B573"/></svg><svg fill="none" viewBox="0 0 22 14" id="edge-6" xmlns="http://www.w3.org/2000/svg"><path d="M20.621.79H1.379c-.577 0-.9.608-.542 1.024l9.62 11.157c.276.319.807.319 1.085 0l9.621-11.157c.357-.416.035-1.025-.542-1.025z" fill="#fff"/></svg><svg viewBox="0 0 192.756 192.756" id="logo" xmlns="http://www.w3.org/2000/svg"><g fill-rule="evenodd" clip-rule="evenodd"><path fill="#fff" d="M0 0h192.756v192.756H0V0z"/><path d="M92.483 96.291l1.252 1.4c5.957 7.209 9.361 9.613 12.515 10.664 4.355 1.451 7.383.676 9.986-.352v-1.65c-.926.25-2.652 1.301-6.807.6-2.578-.449-4.682-1.602-7.285-4.105-2.428-2.326-4.004-4.305-5.381-5.855L95.06 95.09l6.208-6.208h-3.506l-5.281 5.282v-5.282H89.68v15.57h2.803v-8.161z" fill="#186944"/><path fill="#186944" d="M110.51 91.585h6.031v-2.704h-8.836v15.57h9.236v-2.705h-6.431v-4.478h5.33v-2.705h-5.33v-2.978zm11.342 12.866h9.437v-2.705h-6.633V88.881h-2.804v15.57zm17.07-15.57v-4.455h-2.803v4.455h-4.656v2.704h4.656v12.866h2.803V91.585h4.656v-2.704h-4.656zm8.76 0v15.57h2.803v-15.57h-2.803zm3.33-3.353l-1.928-1.928-1.928 1.928 1.928 1.927 1.928-1.927zm8.531 6.057h6.033v-2.704h-8.836v15.57h9.237v-2.705h-6.434v-4.478h5.332v-2.705h-5.332v-2.978zm21.906 10.161a7.925 7.925 0 01-2.053.275c-3.73 0-6.383-2.201-6.383-5.355 0-3.154 2.879-5.356 6.383-5.356 2.027 0 3.729.651 4.855 1.727v-3.254c-1.426-.826-3.203-1.276-5.156-1.276-5.08 0-9.211 3.404-9.211 8.16s3.855 8.16 9.211 8.16c1.902 0 3.68-.477 5.156-1.326v-5.783h-2.803v4.028h.001zM73.8 98.352c2.315 3.656 1.259 8.693-1.138 11.984-2.722 3.615-6.5 5.482-11.049 5.158-10.358-.65-16.817-10.725-26.323-13.445-3.128-1.139-6.54-.164-9.059 1.664-1.584 1.504-2.519 3.332-2.438 5.525.122 1.99 1.462 4.062 3.412 4.713 1.097.162 2.438-.123 2.925-1.301-.081-.812.447-1.381 1.178-1.625.609-.039 1.178.326 1.462.854.041 1.26-.325 2.355-1.178 3.209-1.097 1.301-2.64 1.463-4.265 1.463-2.803-.162-5.119-2.926-5.85-5.443-.65-2.885.041-5.932 1.828-8.205 3.331-3.494 8.734-5.119 13.365-3.088 6.296 2.844 12.268 6.459 17.955 10.805 3.372 1.707 7.638 3.291 11.578 1.666 3.899-1.787 6.621-5.891 6.256-10.156-.244-2.641-2.844-4.996-5.281-5.646-1.3-.324-2.965-.324-4.103.406-.975.691-1.747 1.666-1.828 2.803-.163 1.584 2.6 1.91 1.543 3.615-.487.732-1.543.65-2.153.203-.935-.893-1.95-1.867-1.95-3.209-.04-1.99.65-3.655 2.153-4.996 2.071-1.828 4.996-1.788 7.596-1.178 2.073.73 4.064 2.233 5.364 4.224zM48.857 72.881c2.275 3.615 1.747 9.1-.772 12.39l-2.925 2.722c-7.637 4.956-16.411 7.475-23.033 14.421-1.909 2.314-3.006 5.199-2.234 8.408.853 2.965 3.372 6.094 6.459 7.027 2.315.812 4.631-.121 6.418-1.461 1.015-1.057 1.909-2.113 1.95-3.535 0-1.299-.65-2.559-1.869-3.209-1.097-.324-2.965 1.178-3.412-.691-.244-1.096.894-1.584 1.666-1.826 1.503-.285 3.046-.082 4.103.975 2.031 1.625 2.478 4.59 1.666 6.986-1.097 2.803-4.062 4.834-6.825 5.484-4.793.771-8.896-1.91-11.334-5.85-1.868-3.168-2.274-8.043-.365-11.334 3.778-7.027 11.333-9.465 17.427-13.162 4.753-2.763 12.999-5.402 11.903-12.837-.203-2.559-1.991-5.037-4.387-6.053-1.463-.406-3.128-.162-4.388.487-.934.65-2.234 1.625-1.543 3.006.487 1.016 2.193 1.422 1.259 2.843-.487.528-1.462.691-2.031.204-1.747-1.097-2.153-3.291-1.788-5.2 1.016-2.6 3.778-3.9 6.337-4.185 3.25-.159 6.053 1.628 7.718 4.39zm3.819-1.95c4.55 8.49.447 18.727.488 27.989.162 3.615 1.462 6.988 4.753 9.059 2.112 1.381 5.443 1.584 7.596.203 2.031-1.502 3.087-3.859 2.437-6.336-.284-.895-1.218-1.463-2.031-1.748-.934-.283-1.706.609-2.437-.203-.488-.406-.366-1.299-.082-1.746.853-.771 2.275-.812 3.413-.488 1.421.367 2.924 1.586 3.493 3.008 1.138 2.721.122 5.686-1.381 7.92-2.356 2.723-5.89 3.697-9.546 2.926-3.575-.936-7.028-4.51-8.084-8.004-1.381-3.492-.284-7.596-.203-11.333.447-8.247 3.981-20.027-5.646-24.455-2.803-1.341-6.825-.935-9.343.771-2.356 1.584-3.575 4.144-3.128 6.946.041 1.625.853 3.129 2.315 3.981 1.097.406 2.397.528 3.413-.081 1.137-.69.487-2.478 2.071-2.641.691.041 1.3.447 1.462 1.178-.284 1.584-.975 3.331-2.64 3.981-1.422.731-3.737.731-5.159 0-3.006-1.422-4.265-4.59-4.184-7.8.082-3.128 1.706-5.89 4.387-7.718 3.494-2.356 9.181-2.641 12.837-.487 1.949 1.179 4.103 3.047 5.199 5.078zm21.733 11.212c2.072 4.468 3.372 9.79 3.128 14.746-2.275-4.63-6.987-7.88-12.309-7.434-4.428.203-8.734 3.575-10.034 7.801-1.016 3.209-.285 6.904 2.356 9.18 1.747 1.666 4.712 2.152 6.906 1.057 1.787-.771 2.681-2.6 2.641-4.469-.041-.568-.528-1.178-1.097-1.381-.812-.244-1.544.406-1.747 1.096.365 1.219-.447 2.154-1.462 2.438-1.422.326-2.762-.08-3.697-1.178-1.3-1.26-1.665-3.006-1.462-4.793.326-3.047 3.046-5.81 5.931-6.622 3.371-.894 6.905.082 9.384 2.519 2.6 2.843 3.656 6.458 3.412 10.359-2.884 11.699-14.827 22.221-26.729 23.682-8.246 1.301-16.168-.609-22.708-4.67 3.981.486 8.043-1.139 11.13-4.104 2.641-2.723 3.413-6.5 2.803-10.318-.894-2.885-3.331-5.85-6.216-6.945-2.721-1.018-5.931-.406-8.002 1.461-1.828 1.381-1.869 3.738-1.463 5.77.244.771.894 1.543 1.666 1.949.812.203 1.543-.285 1.828-.975.203-1.543-1.706-2.113-.853-3.818.731-1.178 2.031-1.787 3.291-2.031 2.965-.406 5.322 1.828 6.622 4.184 1.219 2.721.487 6.053-1.259 8.287-3.006 3.25-7.475 4.793-11.781 3.209-6.215-1.381-8.896-8.125-11.334-13.039-4.549-11.619-1.625-25.471 6.825-34.327 2.641-2.844 5.524-5.037 8.693-6.622-2.437 3.128-3.453 7.475-2.234 11.497 1.056 3.372 4.347 6.784 7.799 7.678 4.306.69 8.693-.447 11.009-4.388.934-1.625 1.137-3.94.568-5.85-.609-1.949-2.721-3.25-4.671-3.494-1.056.08-2.072.163-2.438 1.26-.244.853.325 1.462.975 1.747 1.016-.041 2.031-.406 2.844.406.934 1.016 1.056 2.641.569 3.9-1.016 2.965-4.103 3.818-6.906 3.899-3.006-.122-5.85-2.762-6.946-5.443-1.381-4.671.406-9.302 4.225-12.309 3.94-3.372 9.749-2.925 14.99-2.64 10.682 1.176 21.041 8.773 25.753 18.725zm.772-4.265c6.702 10.115 6.702 26.038.405 36.356-7.92 13.285-22.301 20.109-37.656 17.428-12.228-1.787-24.495-12.512-27.786-24.535-4.469-14.585.366-29.777 12.391-39.202 10.155-8.409 27.379-9.912 38.794-3.209 5.321 2.885 10.765 7.8 13.852 13.162z"/></g></svg><svg fill="none" viewBox="0 0 70 71" id="slide-1" xmlns="http://www.w3.org/2000/svg"><path d="M65.625 41.962h-8.75v-8.75H52.5V52.9h-35v-35h19.688v-4.375h-8.75v-8.75h-4.375v8.75H17.5a4.38 4.38 0 00-4.375 4.375v6.563h-8.75v4.374h8.75v13.125h-8.75v4.375h8.75V52.9a4.38 4.38 0 004.375 4.375h6.563v8.75h4.375v-8.75h13.125v8.75h4.374v-8.75H52.5a4.381 4.381 0 004.375-4.375v-6.563h8.75v-4.375z" fill="#02B573"/><path d="M45.938 46.337H24.061V24.462h21.875v21.875zm-17.5-4.375h13.125V28.837H28.437v13.125zm39.374-13.125h-4.374A21.901 21.901 0 0041.561 6.963V2.588a26.278 26.278 0 0126.25 26.25z" fill="#02B573"/><path d="M56.875 28.837H52.5A10.95 10.95 0 0041.562 17.9v-4.375a15.33 15.33 0 0115.313 15.312z" fill="#02B573"/></svg><svg fill="none" viewBox="0 0 70 70" id="slide-3" xmlns="http://www.w3.org/2000/svg"><path d="M17.5 48.125L8.75 56.7V32.083h8.75m14.583 10.675l-4.579-3.908-4.17 3.85V20.417h8.75m14.583 17.5l-8.75 8.75V8.75h8.75m8.195 28.612l-5.279-5.279h14.584v14.584l-5.221-5.221L37.916 62.3l-10.12-8.808L16.77 64.167H8.75l18.87-18.492 10.297 8.692" fill="#02B573"/></svg><svg fill="none" viewBox="0 0 70 71" id="slide2" xmlns="http://www.w3.org/2000/svg"><path d="M46.667 35.4c8.05 0 14.583-6.533 14.583-14.583S54.717 6.233 46.667 6.233s-14.584 6.534-14.584 14.584S38.617 35.4 46.668 35.4zm15.896 16.333c-1.138-1.166-2.567-1.75-4.23-1.75H37.918l-6.067-2.129.963-2.742 5.104 1.955h8.166c1.021 0 1.838-.409 2.509-1.08.67-.67.992-1.487.992-2.391 0-1.575-.759-2.654-2.276-3.267l-21.204-7.846h-5.687v26.25l20.416 5.834 23.421-8.75c.03-1.546-.554-2.917-1.691-4.084zm-47.98-19.25H2.87v32.084h11.713V32.483z" fill="#02B573"/></svg></svg>